<svg width="73" height="72" viewBox="0 0 73 72" fill="none" xmlns="http://www.w3.org/2000/svg">
<g opacity="0.7">
<rect width="72.9122" height="71.8497" rx="12.2901" fill="#21918C" fill-opacity="0.13"/>
<rect x="1.70082" y="1.70082" width="69.5106" height="68.4481" rx="10.5893" stroke="#21918C" stroke-opacity="0.15" stroke-width="3.40164"/>
<path d="M35.7447 23.6874C34.3135 23.6874 32.9145 24.1118 31.7245 24.9069C30.5346 25.7021 29.6071 26.8322 29.0594 28.1544C28.5117 29.4766 28.3684 30.9315 28.6476 32.3352C28.9269 33.7389 29.616 35.0282 30.628 36.0402C31.64 37.0522 32.9293 37.7414 34.333 38.0206C35.7367 38.2998 37.1916 38.1565 38.5138 37.6088C39.836 37.0611 40.9661 36.1336 41.7613 34.9437C42.5564 33.7537 42.9808 32.3547 42.9808 30.9235C42.9808 29.0044 42.2184 27.1639 40.8614 25.8068C39.5043 24.4498 37.6638 23.6874 35.7447 23.6874ZM35.7447 33.3355C35.2676 33.3355 34.8013 33.1941 34.4046 32.929C34.008 32.664 33.6988 32.2873 33.5163 31.8466C33.3337 31.4058 33.2859 30.9208 33.379 30.453C33.4721 29.9851 33.7018 29.5553 34.0391 29.218C34.3765 28.8806 34.8062 28.6509 35.2741 28.5578C35.742 28.4648 36.227 28.5125 36.6677 28.6951C37.1085 28.8777 37.4852 29.1868 37.7502 29.5835C38.0152 29.9801 38.1567 30.4465 38.1567 30.9235C38.1567 31.5632 37.9026 32.1767 37.4502 32.6291C36.9979 33.0814 36.3844 33.3355 35.7447 33.3355ZM35.7447 11.6273C30.627 11.6273 25.719 13.6603 22.1002 17.279C18.4815 20.8978 16.4485 25.8058 16.4485 30.9235C16.4485 45.3957 29.4011 56.2739 34.0804 60.7361C34.529 61.1638 35.1249 61.4023 35.7447 61.4023C36.3644 61.4023 36.9604 61.1638 37.409 60.7361C42.0883 56.2739 55.0409 45.3957 55.0409 30.9235C55.0409 25.8058 53.0079 20.8978 49.3892 17.279C45.7704 13.6603 40.8624 11.6273 35.7447 11.6273V11.6273ZM35.7447 55.6709C30.9206 51.0398 21.2725 41.8741 21.2725 30.9235C21.2725 27.0853 22.7973 23.4042 25.5113 20.6902C28.2254 17.9761 31.9064 16.4514 35.7447 16.4514C39.5829 16.4514 43.264 17.9761 45.978 20.6902C48.6921 23.4042 50.2168 27.0853 50.2168 30.9235C50.2168 41.8741 40.6893 51.0398 35.7447 55.6709Z" fill="#21918C"/>
</g>
</svg>
