<?xml version="1.0" encoding="UTF-8" standalone="no"?>
<!-- Created with Inkscape (http://www.inkscape.org/) -->

<svg
   version="1.1"
   id="svg2"
   width="479.44"
   height="142.89333"
   viewBox="0 0 479.44 142.89333"
   sodipodi:docname="logo_se_green_rgb_screen.eps"
   xmlns:inkscape="http://www.inkscape.org/namespaces/inkscape"
   xmlns:sodipodi="http://sodipodi.sourceforge.net/DTD/sodipodi-0.dtd"
   xmlns="http://www.w3.org/2000/svg"
   xmlns:svg="http://www.w3.org/2000/svg">
  <defs
     id="defs6" />
  <sodipodi:namedview
     id="namedview4"
     pagecolor="#ffffff"
     bordercolor="#000000"
     borderopacity="0.25"
     inkscape:showpageshadow="2"
     inkscape:pageopacity="0.0"
     inkscape:pagecheckerboard="0"
     inkscape:deskcolor="#d1d1d1" />
  <g
     id="g8"
     inkscape:groupmode="layer"
     inkscape:label="ink_ext_XXXXXX"
     transform="matrix(1.3333333,0,0,-1.3333333,0,142.89333)">
    <g
       id="g10"
       transform="scale(0.1)">
      <path
         d="m 1758.35,377.602 h -140.6 v -99.844 h 135.72 v -42.91 H 1617.75 V 131.625 h 144.97 V 88.6953 H 1570.44 V 420.57 h 187.91 v -42.968"
         style="fill:#009530;fill-opacity:1;fill-rule:nonzero;stroke:none"
         id="path12" />
      <path
         d="m 1910.16,88.5977 h -43.13 V 420.609 h 43.13 V 88.5977"
         style="fill:#009530;fill-opacity:1;fill-rule:nonzero;stroke:none"
         id="path14" />
      <path
         d="m 2130.39,274.477 c 30.63,0 49.53,-20.938 51.04,-54.082 h -109.75 c 5.8,34.57 25.68,54.082 58.71,54.082 z m -59.65,-82.813 h 153.56 c 0,80.879 -36.98,120 -94.85,120 -60.21,0 -101.87,-44.512 -101.87,-110.742 0,-60.488 37.77,-116.5626 105.76,-116.5626 36.89,0 60.78,8.3008 87.07,25.8006 v 41.973 c -25.29,-16.602 -50.18,-26.387 -76.37,-26.387 -41.75,0 -66.56,22.481 -73.3,65.918"
         style="fill:#009530;fill-opacity:1;fill-rule:nonzero;stroke:none"
         id="path16" />
      <path
         d="m 2491.48,249.965 c -24.8,16.992 -41.34,22.012 -60.31,22.012 -39.41,0 -66.72,-30.293 -66.72,-74.551 0,-45.254 29.28,-72.52 73.99,-72.52 18.51,0 36.03,4.883 57.93,14.649 V 96.9375 c -14.61,-6.7773 -42.33,-12.5781 -65.2,-12.5781 -65.21,0 -110.58,44.9416 -110.58,109.1606 0,72.402 41.54,118.144 107.67,118.144 25.28,0 42.29,-5.84 63.22,-15.039 v -46.66"
         style="fill:#009530;fill-opacity:1;fill-rule:nonzero;stroke:none"
         id="path18" />
      <path
         d="m 2679.8,307.406 h 69.11 V 268.578 H 2679.8 V 156.391 c 0,-25.84 18.44,-33.164 31.16,-33.164 15.58,0 31.58,5.371 49.14,16.074 V 98.9688 c -15.1,-8.2813 -38.46,-14.6094 -52.56,-14.6094 -47.13,0 -70.82,29.1796 -70.82,68.6526 v 115.566 h -37.99 v 4.824 l 81.07,79.278 v -45.274"
         style="fill:#009530;fill-opacity:1;fill-rule:nonzero;stroke:none"
         id="path20" />
      <path
         d="m 2922.89,307.406 v -50.644 h 0.96 c 21.85,38.769 42.83,54.902 63.26,54.902 17.52,0 34.02,-8.301 52.09,-25.371 l -22.89,-37.988 c -13.15,12.949 -30.22,21.972 -40.35,21.972 -29.69,0 -53.07,-30.254 -53.07,-67.597 V 88.5977 H 2879.8 V 307.406 h 43.09"
         style="fill:#009530;fill-opacity:1;fill-rule:nonzero;stroke:none"
         id="path22" />
      <path
         d="m 3199.12,88.5977 h -42.99 V 307.406 h 42.99 V 88.5977"
         style="fill:#009530;fill-opacity:1;fill-rule:nonzero;stroke:none"
         id="path24" />
      <path
         d="m 3497.28,249.965 c -24.86,16.992 -41.36,22.012 -60.37,22.012 -39.39,0 -66.64,-30.293 -66.64,-74.551 0,-45.254 29.18,-72.52 73.97,-72.52 18.48,0 35.98,4.883 57.91,14.649 V 96.9375 c -14.61,-6.7773 -42.33,-12.5781 -65.24,-12.5781 -65.17,0 -110.6,44.9416 -110.6,109.1606 0,72.402 41.52,118.144 107.71,118.144 25.33,0 42.33,-5.84 63.26,-15.039 v -46.66"
         style="fill:#009530;fill-opacity:1;fill-rule:nonzero;stroke:none"
         id="path26" />
      <path
         d="m 3200.76,386.156 c 4.01,-10.683 -3.26,-25.605 -16.23,-33.242 -12.95,-7.617 -26.76,-5.156 -30.78,5.508 -4.04,10.625 3.2,25.488 16.21,33.183 12.95,7.696 26.74,5.215 30.8,-5.449"
         style="fill:#009530;fill-opacity:1;fill-rule:nonzero;stroke:none"
         id="path28" />
      <path
         d="m 1400.31,233.98 c -4.13,-7.773 -8.57,-15.507 -13.31,-23.195 4.75,7.688 9.17,15.43 13.31,23.195 z m -507.103,18.614 c 2.43,7.676 5.172,15.379 8.215,23.094 h -0.039 c -3.047,-7.715 -5.758,-15.418 -8.176,-23.094 z m 454.333,115.144 h -70.24 c -7.46,0 -10.7,-1.328 -13.73,-4.785 -1.22,-1.328 -1.75,-2.695 -2.12,-5.39 l -38.41,-145.43 c -8.99,-50.957 -71.61,-101.875 -153.21,-101.875 H 956.27 l 19.71,74.746 h 72.91 c 7.46,0 13.28,2.695 18.12,8.164 1.83,1.992 4.15,5.391 4.49,8.809 l 30.18,127.031 c 9,50.996 62.89,107.363 144.51,107.363 h 116.24 z m 48.77,131.16 c -83.74,83.75 -259.04,55.25 -389.62,-69.578 -20.475,-19.57 -38.604,-40.379 -54.311,-61.875 h 72.091 l -16.54,-47.129 h -85.485 c 4.309,7.903 8.942,15.754 13.879,23.547 -14.25,-22.422 -25.902,-45.332 -34.902,-68.175 h 100.708 l -16.064,-47.09 h -99.461 c -16.91,-72.11 -5.699,-139.2191 36.918,-181.8363 82.717,-82.7305 257.437,-53.67186 388.007,71.2113 22.88,21.875 42.86,45.215 59.9,69.277 h -92.48 l 13.84,47.109 h 107.71 c 7.88,14.836 14.65,29.766 20.26,44.629 h -117.21 l 12.98,47.051 h 118.21 c 14.61,68.293 3,131.406 -38.43,172.859 z m 24.52,-219.742 c 2.93,7.774 5.55,15.528 7.84,23.242 -2.3,-7.707 -4.91,-15.48 -7.84,-23.242 z m 0,0 c -0.02,-0.058 -0.05,-0.109 -0.07,-0.168 h 0.01 c 0.02,0.059 0.04,0.11 0.06,0.168 z m -20.3,-44.797 h -0.03 c -0.07,-0.125 -0.12,-0.254 -0.19,-0.379 0.07,0.125 0.15,0.254 0.22,0.379"
         style="fill:#009530;fill-opacity:1;fill-rule:nonzero;stroke:none"
         id="path30" />
      <path
         d="m 2310.76,1042.91 c 11.29,-29.88 -9.02,-71.465 -45.35,-92.82 -36.33,-21.457 -74.84,-14.668 -86.07,15.215 -11.31,29.883 8.96,71.415 45.23,92.875 36.33,21.4 74.88,14.61 86.19,-15.27"
         style="fill:#009530;fill-opacity:1;fill-rule:nonzero;stroke:none"
         id="path32" />
      <path
         d="M 2184.69,497.48 H 2305.2 V 881.406 H 2184.69 Z M 3516,888.789 c -46.59,0 -86.49,-37.473 -122.21,-117.305 h -1.7 V 881.797 H 3271.62 V 497.93 h 120.47 v 165.715 c 26.66,70.418 54.92,112 99.02,112 19.03,0 39.85,-8.321 71.47,-28.243 l 33.24,106.446 c -34.92,25.769 -55.64,34.941 -79.82,34.941 z M 1865.23,732.527 c 4.97,53.227 35.79,84.055 83.27,84.055 46.62,0 78.3,-31.672 83.24,-84.055 z m 74.93,155.911 c -118.28,0 -202.38,-83.504 -202.38,-201.153 0,-118.293 87.42,-196.738 222.36,-196.738 29.98,0 102.32,0 171.27,50.891 v 75.027 c -56.45,-40.188 -93.81,-54.063 -142.09,-54.063 -75.82,0 -122.41,39.348 -126.57,106.543 h 275.3 c 5.8,140.098 -86.39,219.493 -197.89,219.493 z m 700.09,-286.043 c -25.02,-22.454 -45.84,-31.622 -71.7,-31.622 -56.69,0 -92.51,46.637 -92.51,116.661 0,76.621 35.82,120.769 96.68,120.769 21.69,0 50,-10.058 67.53,-22.5 z m 0,262.109 c -32.55,15.762 -65.05,24.031 -100.05,24.031 -109.71,0 -185.84,-81.172 -185.84,-198.625 0,-114.969 76.13,-199.519 179.16,-199.519 40.88,0 72.55,10.808 106.73,38.117 v -30.981 h 120.49 v 567.043 h -120.49 z m 298.64,-131.977 c 4.96,53.227 35.84,84.055 83.26,84.055 46.64,0 78.3,-31.672 83.26,-84.055 z m 74.98,155.911 c -118.34,0 -202.48,-83.504 -202.48,-201.153 0,-118.293 87.52,-196.738 222.4,-196.738 29.98,0 102.34,0 171.39,50.891 v 75.027 c -56.51,-40.188 -93.97,-54.063 -142.19,-54.063 -75.78,0 -122.4,39.348 -126.58,106.543 h 275.35 c 5.84,140.098 -86.39,219.493 -197.89,219.493 z m -1906.36,0 c -47.38,0 -86.43,-20.02 -121.365,-64.18 h -1.637 V 1064.57 H 864.082 V 497.48 h 120.426 v 244.368 c 28.302,40.742 52.382,58.179 80.632,58.179 37.41,0 62.29,-26.558 62.29,-83.953 V 579.121 c 40.85,17.113 81.75,27.52 120.52,30.84 v 131.887 c 0,104.019 -70.61,146.59 -140.44,146.59 z m -962.158,32.753 c 0,28.25 32.66,46.438 83.753,46.438 48.614,0 97.676,-14.024 179.895,-50.551 v 110.472 c -71.363,30.77 -128.801,44.1 -192.48,44.1 C 84.6914,1071.65 0,1006.78 0,908.809 0,705.574 289.414,739.57 289.414,646.648 c 0,-33.203 -29.336,-52.285 -83.801,-52.285 -62.793,0 -112.5935,19.082 -193.9177,73.047 V 545.305 C 68.0898,516.16 117.105,490.391 216.52,490.391 c 126.863,0 218.246,63.242 218.246,171.964 0,197.54 -289.414,173.407 -289.414,258.836 z M 591.316,689.316 c 0,67.2 46.59,110.618 118.942,110.618 29.933,0 66.504,-9.219 98.121,-25.969 v 89.746 c -39.895,14.863 -89.844,24.824 -128.945,24.824 -126.371,0 -216.914,-82.812 -216.914,-200.012 0,-119.48 87.222,-197.976 221.968,-197.976 40.688,0 81.473,8.371 129.692,25.918 v 86.621 c -53.172,-19.871 -78.946,-26.563 -108.086,-26.563 -68.985,0 -114.778,44.856 -114.778,112.793 z m 959.044,199.219 c -49.12,0 -86.58,-18.183 -124.94,-62.137 v 55.008 h -120.47 c 0,0 0,-167.285 0,-271.875 47.29,-5.051 89.03,-22.398 120.47,-52.574 0,71.856 0,187.965 0,187.965 31.67,47.422 54.17,63.281 84.1,63.281 34.2,0 60.06,-22.5 60.06,-76.609 V 497.48 h 120.48 v 244.075 c 0,113.035 -79.79,146.98 -139.7,146.98"
         style="fill:#009530;fill-opacity:1;fill-rule:nonzero;stroke:none"
         id="path34" />
      <path
         d="m 3557.92,360.199 h -12.2 v -30.683 h -5.05 v 30.683 h -12.19 v 4.543 h 29.44 v -4.543"
         style="fill:#009530;fill-opacity:1;fill-rule:nonzero;stroke:none"
         id="path36" />
      <path
         d="m 3595.43,329.516 h -5.06 v 27.422 h -0.11 l -10.85,-13.633 h -0.82 l -10.85,13.633 h -0.09 v -27.422 h -5.07 v 35.226 h 4.75 l 11.67,-14.465 11.73,14.465 h 4.7 v -35.226"
         style="fill:#009530;fill-opacity:1;fill-rule:nonzero;stroke:none"
         id="path38" />
    </g>
  </g>
</svg>
