<svg width="73" height="72" viewBox="0 0 73 72" fill="none" xmlns="http://www.w3.org/2000/svg">
<rect width="72.9122" height="71.8497" rx="12.2901" fill="#21918C" fill-opacity="0.13"/>
<rect x="1.70082" y="1.70082" width="69.5106" height="68.4481" rx="10.5893" stroke="#21918C" stroke-opacity="0.15" stroke-width="3.40164"/>
<g opacity="0.7">
<path d="M35.8085 12.1892C31.1551 12.1892 26.6062 13.5691 22.7371 16.1544C18.8679 18.7397 15.8523 22.4143 14.0715 26.7134C12.2907 31.0126 11.8248 35.7433 12.7326 40.3073C13.6404 44.8713 15.8813 49.0636 19.1717 52.354C22.4622 55.6445 26.6545 57.8853 31.2185 58.7932C35.7824 59.701 40.5131 59.2351 44.8123 57.4543C49.1115 55.6735 52.7861 52.6578 55.3714 48.7887C57.9567 44.9195 59.3366 40.3706 59.3366 35.7172C59.3366 32.6275 58.728 29.568 57.5456 26.7134C56.3632 23.8589 54.6301 21.2652 52.4454 19.0804C50.2606 16.8956 47.6669 15.1626 44.8123 13.9802C41.9578 12.7978 38.8983 12.1892 35.8085 12.1892V12.1892ZM35.8085 54.5396C32.0858 54.5396 28.4467 53.4357 25.3514 51.3675C22.256 49.2993 19.8435 46.3596 18.4189 42.9202C16.9943 39.4809 16.6215 35.6963 17.3478 32.0452C18.0741 28.394 19.8667 25.0401 22.4991 22.4078C25.1314 19.7754 28.4853 17.9827 32.1365 17.2565C35.7877 16.5302 39.5722 16.903 43.0116 18.3276C46.4509 19.7522 49.3906 22.1647 51.4588 25.2601C53.527 28.3554 54.631 31.9945 54.631 35.7172C54.631 40.7092 52.6479 45.4968 49.118 49.0267C45.5881 52.5566 40.8006 54.5396 35.8085 54.5396V54.5396ZM42.1846 38.7523C42.6277 39.1954 42.8766 39.7963 42.8766 40.4228C42.8766 41.0494 42.6277 41.6503 42.1846 42.0933C41.7416 42.5364 41.1407 42.7853 40.5141 42.7853C39.8876 42.7853 39.2867 42.5364 38.8437 42.0933L34.1381 37.3877C33.92 37.1679 33.7475 36.9071 33.6304 36.6205C33.5133 36.3338 33.454 36.0269 33.4557 35.7172V28.6588C33.4557 28.0348 33.7036 27.4364 34.1449 26.9951C34.5861 26.5539 35.1845 26.306 35.8085 26.306C36.4325 26.306 37.031 26.5539 37.4722 26.9951C37.9135 27.4364 38.1613 28.0348 38.1613 28.6588V34.7526L42.1846 38.7523Z" fill="#21918C"/>
</g>
</svg>
