<svg xmlns="http://www.w3.org/2000/svg" viewBox="0 0 72.21 27.19"><defs><style>.cls-1{fill:#009bf4;}</style></defs><title>logo_t2c_footer</title><g id="Capa_2" data-name="Capa 2"><g id="Capa_1-2" data-name="Capa 1"><path class="cls-1" d="M18.91,8.36q0,3,0,6a1.11,1.11,0,0,0,.41,1,.94.94,0,0,0,1,.08.91.91,0,0,0,.51-.86c0-.13,0-.26,0-.39q0-4.86,0-9.73A2.39,2.39,0,0,1,23,2a2.49,2.49,0,0,1,2.93,1.92,3,3,0,0,1,0,.6c0,2.16,0,4.32,0,6.48,0,.66.24,1,.77,1.15a.93.93,0,0,0,1.18-.87c0-.34,0-.68,0-1a2.44,2.44,0,0,1,4.88,0q0,4.35,0,8.7a2.44,2.44,0,0,1-4.88,0c0-1.06,0-2.11,0-3.17a1.09,1.09,0,0,0-.41-1,.93.93,0,0,0-1-.08.92.92,0,0,0-.51.86q0,2.1,0,4.19a2.39,2.39,0,0,1-2.12,2.42,2.5,2.5,0,0,1-2.94-2,11,11,0,0,1,0-1.3,1,1,0,0,0-1.27-1,.92.92,0,0,0-.67.86c0,.32,0,.63,0,1a2.42,2.42,0,0,1-2.43,2.44,2.45,2.45,0,0,1-2.62-1.93,3.12,3.12,0,0,1,0-.6q0-3.12,0-6.24a1.17,1.17,0,0,0-.38-1,.93.93,0,0,0-1-.12.91.91,0,0,0-.54.88c0,.15,0,.31,0,.46q0,5.53,0,11.07a2.39,2.39,0,0,1-2.12,2.42,2.47,2.47,0,0,1-2.86-1.91,3.17,3.17,0,0,1,0-.63q0-4.37,0-8.74a1.08,1.08,0,0,0-.59-1.14.94.94,0,0,0-1.35.84c0,.83,0,1.67,0,2.5a2.39,2.39,0,0,1-2.11,2.39A2.38,2.38,0,0,1,0,18.07q0-3.91,0-7.82A2.39,2.39,0,0,1,2.11,7.86,2.43,2.43,0,0,1,4.85,9.79a10.42,10.42,0,0,1,0,1.37,1,1,0,0,0,1.3,1,.94.94,0,0,0,.65-1c0-1.6,0-3.2,0-4.79A2.31,2.31,0,0,1,8.15,4.1a2.55,2.55,0,0,1,2.74.21,2.22,2.22,0,0,1,1,1.83c0,.86,0,1.72,0,2.57a1,1,0,0,0,1.27,1,.94.94,0,0,0,.67-1c0-2.11,0-4.23,0-6.34A2.23,2.23,0,0,1,15.07.32a2.55,2.55,0,0,1,3.84,2.22c0,1.94,0,3.88,0,5.81"/><path d="M66.06,5.44a7.75,7.75,0,0,1,3.8.81,7.06,7.06,0,0,1,1.82,1.24,1.62,1.62,0,0,1,.14,2.26A2.1,2.1,0,0,1,70,10.7a1.27,1.27,0,0,1-.83-.33,4.62,4.62,0,0,0-5.82-.25,4.55,4.55,0,0,0-1.82,3.23,4.64,4.64,0,0,0,3.8,5.1A4.38,4.38,0,0,0,69,17.39a1.85,1.85,0,0,1,2.18-.06,2.14,2.14,0,0,1,1,1.63,1.37,1.37,0,0,1-.49,1.2,8.54,8.54,0,0,1-4.1,2,8.87,8.87,0,0,1-4.92-.51,8.08,8.08,0,0,1-4.93-5.16,8.12,8.12,0,0,1,1.32-7.8A8.31,8.31,0,0,1,64.76,5.5a4,4,0,0,1,.66-.06h.63"/><path d="M50.73,18.76c1.4,0,2.72,0,4,0a1.61,1.61,0,0,1,1.49,1.88,1.62,1.62,0,0,1-1.79,1.44c-2.29,0-4.58,0-6.87,0a1.81,1.81,0,0,1-1.81-1.19,2.47,2.47,0,0,1,.44-2.43c1.12-1,2.2-2.11,3.31-3.15q1.21-1.13,2.41-2.26a3.48,3.48,0,0,0,1-1.39A2,2,0,0,0,51.1,9a2.15,2.15,0,0,0-2.27,2.17,1.73,1.73,0,0,1-2.16,1.55,1.57,1.57,0,0,1-1.32-1.89,5.52,5.52,0,0,1,1.41-3.4,5,5,0,0,1,2.6-1.53,6.12,6.12,0,0,1,4.41.46,4.94,4.94,0,0,1,2.8,4.53,5.17,5.17,0,0,1-1.5,3.67c-1,1.16-2.25,2.15-3.34,3.26-.3.31-.64.57-1,1"/><path d="M38.12,14.32c0-1.37,0-2.75,0-4.12,0-.29-.05-.4-.38-.43a1.61,1.61,0,0,1-1.6-1.59,1.76,1.76,0,0,1,1.2-1.85,1.26,1.26,0,0,1,.45,0c.25,0,.33-.09.32-.33,0-.58,0-1.15,0-1.73a1.56,1.56,0,0,1,1-1.55,2.16,2.16,0,0,1,2.49.45,1.34,1.34,0,0,1,.38,1c0,.61,0,1.22,0,1.83,0,.3.1.38.39.38a5,5,0,0,1,1.26,0,1.56,1.56,0,0,1,1.18,1.48,1.92,1.92,0,0,1-.42,1.44,1.62,1.62,0,0,1-1.21.54,6,6,0,0,1-.77,0c-.32,0-.43.08-.42.41,0,1.2,0,2.4,0,3.59s0,2.42,0,3.63A1.08,1.08,0,0,0,43,18.49a1.62,1.62,0,0,1,1.75,1.77,2,2,0,0,1-.66,1.7,1.12,1.12,0,0,1-.69.3,6.72,6.72,0,0,1-3-.43A3.48,3.48,0,0,1,38.19,19a36,36,0,0,1-.07-3.76c0-.29,0-.59,0-.88"/></g></g></svg>