<svg width="73" height="72" viewBox="0 0 73 72" fill="none" xmlns="http://www.w3.org/2000/svg">
<rect width="72.9122" height="71.8497" rx="12.2901" fill="#21918C" fill-opacity="0.13"/>
<rect x="1.70082" y="1.70082" width="69.5106" height="68.4481" rx="10.5893" stroke="#21918C" stroke-opacity="0.15" stroke-width="3.40164"/>
<g opacity="0.7">
<path d="M35.7328 38.1359C38.4359 38.1359 41.0783 37.3357 43.3258 35.8363C45.5733 34.337 47.325 32.2059 48.3594 29.7126C49.3939 27.2194 49.6645 24.4758 49.1372 21.8289C48.6098 19.1821 47.3082 16.7508 45.3968 14.8425C43.4855 12.9342 41.0502 11.6346 38.3991 11.1081C35.748 10.5816 33 10.8519 30.5027 11.8846C28.0054 12.9174 25.8709 14.6663 24.3692 16.9102C22.8674 19.1541 22.0659 21.7922 22.0659 24.4909C22.0659 28.1098 23.5058 31.5805 26.0688 34.1394C28.6319 36.6983 32.1081 38.1359 35.7328 38.1359V38.1359ZM35.7328 16.3039C37.3547 16.3039 38.9401 16.7841 40.2886 17.6837C41.6371 18.5833 42.6881 19.8619 43.3088 21.3579C43.9294 22.8539 44.0918 24.5 43.7754 26.0881C43.459 27.6763 42.678 29.135 41.5312 30.28C40.3844 31.425 38.9233 32.2047 37.3326 32.5206C35.7419 32.8365 34.0932 32.6744 32.5948 32.0547C31.0964 31.4351 29.8157 30.3857 28.9146 29.0394C28.0136 27.693 27.5327 26.1102 27.5327 24.4909C27.5327 22.3196 28.3966 20.2372 29.9344 18.7019C31.4723 17.1665 33.558 16.3039 35.7328 16.3039V16.3039ZM54.8665 51.7809V57.2389C54.8665 57.9627 54.5786 58.6568 54.066 59.1686C53.5533 59.6804 52.8581 59.9679 52.1332 59.9679C51.4082 59.9679 50.713 59.6804 50.2004 59.1686C49.6877 58.6568 49.3998 57.9627 49.3998 57.2389V51.7809C49.3998 51.0571 49.1118 50.363 48.5992 49.8512C48.0866 49.3394 47.3913 49.0519 46.6664 49.0519H24.7993C24.0743 49.0519 23.3791 49.3394 22.8665 49.8512C22.3539 50.363 22.0659 51.0571 22.0659 51.7809V57.2389C22.0659 57.9627 21.7779 58.6568 21.2653 59.1686C20.7527 59.6804 20.0574 59.9679 19.3325 59.9679C18.6076 59.9679 17.9123 59.6804 17.3997 59.1686C16.8871 58.6568 16.5991 57.9627 16.5991 57.2389V51.7809C16.5991 49.6096 17.4631 47.5272 19.0009 45.9918C20.5387 44.4565 22.6245 43.5939 24.7993 43.5939H46.6664C48.8412 43.5939 50.9269 44.4565 52.4648 45.9918C54.0026 47.5272 54.8665 49.6096 54.8665 51.7809Z" fill="#21918C"/>
</g>
</svg>
